<?xml version="1.0" encoding="utf-8"?><!-- Uploaded to: SVG Repo, www.svgrepo.com, Generator: SVG Repo Mixer Tools -->
<svg fill="#000000" width="800px" height="800px" viewBox="0 0 24 24" id="call-in-2" data-name="Flat Color" xmlns="http://www.w3.org/2000/svg" class="icon flat-color"><path id="secondary" d="M21.5,8.4a1,1,0,0,0-1.36.36L20,8.94a8.55,8.55,0,0,0-8-6.94,1,1,0,0,0-.12,2c3.33.19,5.65,2.48,6.28,6l-.78-.53a1,1,0,0,0-1.39.27,1,1,0,0,0,.26,1.38l2.53,1.73a1.06,1.06,0,0,0,.57.17l.22,0a1,1,0,0,0,.64-.48l1.59-2.73A1,1,0,0,0,21.5,8.4Z" style="fill: rgb(44, 169, 188);"></path><path id="primary" d="M18.18,17.52a3,3,0,0,0-1.5-1.88c-.33-.17-.65-.36-1-.55a3,3,0,0,0-4,.79l-1.26,1.8a18.41,18.41,0,0,1-2.21-1.9,18.41,18.41,0,0,1-1.9-2.21l1.8-1.26a3,3,0,0,0,.79-4c-.19-.31-.38-.63-.55-1a3,3,0,0,0-4.29-1.1l-1,.62A2.15,2.15,0,0,0,2.06,9.21a14.57,14.57,0,0,0,2,4.63h0a19.19,19.19,0,0,0,2.72,3.34,19.15,19.15,0,0,0,3.33,2.71h0a14.48,14.48,0,0,0,4.65,2h0a2.29,2.29,0,0,0,.51.06,2.21,2.21,0,0,0,1.86-1.12l.62-.95A3,3,0,0,0,18.18,17.52Z" style="fill: rgb(0, 0, 0);"></path></svg>